External Loads File
version=1
nRows=38
nColumns=13
Range=5.000000e-03-10 seconds
endheader
time 	forceRightX 	forceRightY 	forceRightZ 	pointRightX 	pointRightY 	pointRightZ 	forceLeftX 	forceLeftY 	forceLeftZ 	pointLeftX 	pointLeftY 	pointLeftZ 		
5.005000 -121.875950 350.588478 -0.000000 0.313020 0.382262 -0.102296 110.305723 77.089389 -0.000000 0.027613 0.257012 -0.339652
5.010000 -129.852838 376.395918 -0.000000 0.315394 0.371395 -0.102159 117.484837 78.804047 -0.000000 0.025031 0.267019 -0.339646
5.015000 -136.542702 399.940557 -0.000000 0.317622 0.360463 -0.102123 124.015426 80.251454 -0.000000 0.023083 0.277380 -0.339598
5.020000 -141.865366 421.042047 -0.000000 0.319329 0.349289 -0.102013 129.594545 81.575070 -0.000000 0.021842 0.287772 -0.339624
5.025000 -145.325950 439.710378 -0.000000 0.320524 0.338079 -0.101712 134.125117 82.828181 -0.000000 0.021278 0.298396 -0.339613
5.030000 -147.381510 455.703644 -0.000000 0.321217 0.326839 -0.101443 137.421985 84.359191 -0.000000 0.021242 0.308690 -0.339461
5.035000 -147.231294 469.309226 -0.000000 0.321335 0.315729 -0.101170 139.629667 86.046650 -0.000000 0.022033 0.319213 -0.339467
5.040000 -145.222077 480.572042 -0.000000 0.321209 0.304687 -0.101208 140.775862 87.954682 -0.000000 0.023525 0.329581 -0.339656
5.045000 -141.408165 489.726924 -0.000000 0.320145 0.293916 -0.101441 141.018826 89.870819 -0.000000 0.025603 0.339870 -0.339750
5.050000 -135.442164 497.147185 -0.000000 0.318565 0.283339 -0.101946 140.581267 91.276382 -0.000000 0.028585 0.350114 -0.339747
5.055000 -127.101460 503.145886 -0.000000 0.316479 0.272870 -0.102081 139.542391 91.553229 -0.000000 0.032173 0.360377 -0.339800
5.060000 -116.844615 507.843333 -0.000000 0.313743 0.262603 -0.101728 137.695328 90.256700 -0.000000 0.036442 0.370426 -0.339890
5.065000 -104.655518 511.454654 -0.000000 0.310408 0.252498 -0.101970 134.808571 86.896876 -0.000000 0.041437 0.380251 -0.340209
5.070000 -91.429967 513.954181 -0.000000 0.306749 0.242784 -0.102377 130.457100 81.342579 -0.000000 0.047077 0.389748 -0.339933
5.075000 -75.917889 515.649596 -0.000000 0.302206 0.233161 -0.102450 124.558753 73.024981 -0.000000 0.053355 0.399093 -0.340017
5.080000 -59.149841 516.351191 -0.000000 0.297018 0.223968 -0.102536 116.654539 62.092591 -0.000000 0.060232 0.408174 -0.340037
5.085000 -41.301531 516.012921 -0.000000 0.291156 0.215100 -0.102645 106.465228 48.632613 -0.000000 0.067599 0.416889 -0.340058
5.090000 -22.646061 514.612409 -0.000000 0.284454 0.206711 -0.102431 93.831783 32.925253 -0.000000 0.075387 0.425153 -0.340067
5.095000 -2.630492 512.223134 -0.000000 0.277421 0.198846 -0.102505 78.819745 15.240381 -0.000000 0.084388 0.433199 -0.340927
5.100000 16.746410 508.930840 -0.000000 0.269784 0.191292 -0.102516 61.555276 -3.668122 -0.000000 0.093106 0.440684 -0.341086
5.105000 34.807697 504.968049 -0.000000 0.261754 0.184242 -0.102506 42.484675 -23.334360 -0.000000 0.101390 0.447776 -0.340228
5.110000 53.784979 500.246938 -0.000000 0.253224 0.177769 -0.102449 22.006191 -43.448839 -0.000000 0.110663 0.454244 -0.340140
5.115000 73.064938 494.618670 -0.000000 0.244356 0.171773 -0.102384 0.620657 -63.250517 -0.000000 0.120435 0.460264 -0.340353
5.120000 91.404093 487.979875 -0.000000 0.235126 0.166477 -0.102266 -20.871808 -82.038539 -0.000000 0.129878 0.465938 -0.340487
5.125000 109.626900 479.780011 -0.000000 0.225630 0.161680 -0.102104 -41.858960 -99.123959 -0.000000 0.139646 0.471099 -0.340423
5.130000 126.653498 469.712339 -0.000000 0.215910 0.157688 -0.101983 -61.438710 -113.919844 -0.000000 0.149198 0.475779 -0.340242
5.135000 142.711356 457.182559 -0.000000 0.205940 0.154397 -0.101876 -79.038986 -125.821859 -0.000000 0.158798 0.479865 -0.340041
5.140000 156.911641 441.943460 -0.000000 0.195956 0.151805 -0.101808 -93.945914 -134.489962 -0.000000 0.168279 0.483419 -0.339690
5.145000 169.338119 423.513483 -0.000000 0.185903 0.149955 -0.101824 -105.871460 -139.549698 -0.000000 0.177967 0.486336 -0.339320
5.150000 178.966423 401.915248 -0.000000 0.176071 0.148840 -0.101858 -114.360028 -140.948073 -0.000000 0.187683 0.488537 -0.339132
5.155000 185.230106 377.210935 -0.000000 0.166321 0.148398 -0.101792 -119.245279 -138.666884 -0.000000 0.197102 0.490105 -0.339179
5.160000 187.930632 349.494797 -0.000000 0.156800 0.148746 -0.101836 -120.691977 -132.784873 -0.000000 0.206352 0.490855 -0.339213
5.165000 187.086310 318.951760 -0.000000 0.147365 0.149736 -0.101924 -119.159792 -123.530609 -0.000000 0.215369 0.490827 -0.339275
5.170000 182.518377 286.145409 -0.000000 0.138394 0.151563 -0.102095 -115.186928 -111.365150 -0.000000 0.224080 0.489969 -0.339642
5.175000 174.637339 251.580744 -0.000000 0.129658 0.154033 -0.102029 -109.643355 -96.584924 -0.000000 0.232412 0.488531 -0.340255
5.180000 163.895115 215.977357 -0.000000 0.121207 0.157114 -0.102144 -103.456557 -79.420930 -0.000000 0.240365 0.486215 -0.340754
5.185000 150.828521 180.241900 -0.000000 0.113042 0.160968 -0.102285 -97.501660 -60.001507 -0.000000 0.247814 0.483162 -0.341313
5.190000 136.172193 145.333316 -0.000000 0.105092 0.165335 -0.102469 -92.514836 -38.328516 -0.000000 0.254865 0.479397 -0.342119
